:FULLY-SPECIFIED
:FORCE-ALL-JOINTS-BE-3DOF
:DEGREES
81
root 9.27325 16.3498 -25.5806 4.27777 -7.53117 2.06535
lfemur -16.768 3.00263 -26.6154
ltibia 27.7682 0 0
lfoot -14.6209 9.17307 0
ltoes -1.08161 0 0
rfemur -21.3412 1.38494 18.6336
rtibia 58.3788 0 0
rfoot -16.3638 -11.9322 0
rtoes -11.7285 0 0
lowerback -5.20625 -1.09165 -3.59347
upperback -1.48895 -1.33213 2.63615
thorax 1.53848 -0.672681 4.66775
lowerneck -22.2984 -4.01576 -11.7154
upperneck 19.555 -4.62207 12.0809
head 10.5297 -1.58303 5.61751
lclavicle -2.0606e-14 6.39987e-16 0
lhumerus -27.6512 -12.7207 87.3687
lradius 26.6971 0 0
lwrist 1.83353 0 0
lhand -9.25522 -22.711 0
lfingers 7.12502 0 0
lthumb 16.6972 6.54989 0
rclavicle -2.0606e-14 6.39987e-16 0
rhumerus -43.9481 14.0626 -89.2417
rradius 40.8042 0 0
rwrist -21.9773 0 0
rhand -30.6977 -23.7562 0
rfingers 7.12502 0 0
rthumb -3.99124 -53.6985 0
82
root 9.29842 16.3672 -25.4508 4.18962 -7.49602 2.28455
lfemur -16.0749 2.84848 -26.9658
ltibia 27.5632 0 0
lfoot -15.0182 9.22704 0
ltoes -1.01131 0 0
rfemur -22.5026 1.26505 18.4052
rtibia 59.8757 0 0
rfoot -16.7189 -12.2626 0
rtoes -11.2946 0 0
lowerback -5.11724 -1.15132 -3.75152
upperback -1.49595 -1.39797 2.60009
thorax 1.48637 -0.705861 4.71316
lowerneck -22.3269 -3.99854 -11.6956
upperneck 19.6503 -4.59434 12.0136
head 10.5614 -1.57514 5.59686
lclavicle -2.03292e-14 1.91027e-15 0
lhumerus -27.2266 -12.8674 87.2545
lradius 26.7877 0 0
lwrist 1.88622 0 0
lhand -9.66456 -22.8468 0
lfingers 7.12502 0 0
lthumb 16.3048 6.46679 0
rclavicle -2.03292e-14 1.91027e-15 0
rhumerus -43.9004 13.9146 -89.1231
rradius 40.4119 0 0
rwrist -21.8534 0 0
rhand -30.6939 -23.4796 0
rfingers 7.12502 0 0
rthumb -3.9875 -53.422 0
83
root 9.32359 16.3847 -25.3211 4.10147 -7.46086 2.50374
lfemur -15.3819 2.69433 -27.3161
ltibia 27.3581 0 0
lfoot -15.4155 9.28101 0
ltoes -0.941018 0 0
rfemur -23.6641 1.14515 18.1767
rtibia 61.3726 0 0
rfoot -17.074 -12.5931 0
rtoes -10.8607 0 0
lowerback -5.02824 -1.211 -3.90958
upperback -1.50296 -1.46382 2.56402
thorax 1.43427 -0.739042 4.75856
lowerneck -22.3555 -3.98132 -11.6757
upperneck 19.7455 -4.56661 11.9463
head 10.5931 -1.56725 5.5762
lclavicle -2.00524e-14 3.18055e-15 0
lhumerus -26.802 -13.014 87.1404
lradius 26.8783 0 0
lwrist 1.9389 0 0
lhand -10.0739 -22.9826 0
lfingers 7.12502 0 0
lthumb 15.9125 6.3837 0
rclavicle -2.00524e-14 3.18055e-15 0
rhumerus -43.8526 13.7666 -89.0045
rradius 40.0196 0 0
rwrist -21.7294 0 0
rhand -30.69 -23.203 0
rfingers 7.12502 0 0
rthumb -3.98376 -53.1455 0
84
root 9.32109 16.3757 -25.1921 4.13351 -7.1242 2.57429
lfemur -14.5743 2.65478 -27.3242
ltibia 26.6908 0 0
lfoot -15.4156 9.05412 0
ltoes -1.07416 0 0
rfemur -24.1224 1.39241 17.853
rtibia 60.5114 0 0
rfoot -17.2483 -12.6084 0
rtoes -11.1226 0 0
lowerback -5.11019 -1.27359 -3.97146
upperback -1.49507 -1.53845 2.55275
thorax 1.50029 -0.778696 4.77092
lowerneck -22.2868 -4.01528 -11.7146
upperneck 19.7812 -4.6077 11.9253
head 10.5995 -1.59374 5.56942
lclavicle -2.07091e-14 2.63753e-15 0
lhumerus -26.8659 -13.3355 87.3679
lradius 27.2159 0 0
lwrist 2.15058 0 0
lhand -10.0989 -23.0153 0
lfingers 7.12502 0 0
lthumb 15.8884 6.3529 0
rclavicle -2.07091e-14 2.63753e-15 0
rhumerus -43.9313 13.5996 -88.8561
rradius 39.8644 0 0
rwrist -21.6435 0 0
rhand -30.6663 -23.2048 0
rfingers 7.12502 0 0
rthumb -3.96092 -53.1477 0
85
root 9.3186 16.3666 -25.063 4.16554 -6.78754 2.64483
lfemur -13.7667 2.61522 -27.3323
ltibia 26.0236 0 0
lfoot -15.4158 8.82722 0
ltoes -1.2073 0 0
rfemur -24.5807 1.63967 17.5293
rtibia 59.6502 0 0
rfoot -17.4226 -12.6238 0
rtoes -11.3846 0 0
lowerback -5.19214 -1.33618 -4.03334
upperback -1.48718 -1.61309 2.54148
thorax 1.56631 -0.81835 4.78328
lowerneck -22.218 -4.04925 -11.7534
upperneck 19.8168 -4.64879 11.9043
head 10.6059 -1.62022 5.56265
lclavicle -2.13657e-14 2.09451e-15 0
lhumerus -26.9299 -13.657 87.5953
lradius 27.5535 0 0
lwrist 2.36226 0 0
lhand -10.124 -23.0479 0
lfingers 7.12502 0 0
lthumb 15.8643 6.3221 0
rclavicle -2.13657e-14 2.09451e-15 0
rhumerus -44.01 13.4325 -88.7077
rradius 39.7092 0 0
rwrist -21.5576 0 0
rhand -30.6427 -23.2067 0
rfingers 7.12502 0 0
rthumb -3.93808 -53.1499 0
86
root 9.3161 16.3576 -24.934 4.19758 -6.45088 2.71538
lfemur -12.9591 2.57567 -27.3404
ltibia 25.3563 0 0
lfoot -15.4159 8.60033 0
ltoes -1.34044 0 0
rfemur -25.0391 1.88694 17.2056
rtibia 58.789 0 0
rfoot -17.5969 -12.6391 0
rtoes -11.6465 0 0
lowerback -5.27408 -1.39877 -4.09522
upperback -1.47929 -1.68772 2.53022
thorax 1.63233 -0.858004 4.79564
lowerneck -22.1493 -4.08321 -11.7923
upperneck 19.8525 -4.68989 11.8833
head 10.6123 -1.64671 5.55587
lclavicle -2.20224e-14 1.55149e-15 0
lhumerus -26.9938 -13.9786 87.8228
lradius 27.8911 0 0
lwrist 2.57393 0 0
lhand -10.149 -23.0806 0
lfingers 7.12502 0 0
lthumb 15.8401 6.2913 0
rclavicle -2.20224e-14 1.55149e-15 0
rhumerus -44.0887 13.2655 -88.5594
rradius 39.554 0 0
rwrist -21.4717 0 0
rhand -30.619 -23.2085 0
rfingers 7.12502 0 0
rthumb -3.91524 -53.1521 0
87
root 9.31361 16.3486 -24.8049 4.22962 -6.11422 2.78593
lfemur -12.1515 2.53611 -27.3485
ltibia 24.689 0 0
lfoot -15.4161 8.37343 0
ltoes -1.47358 0 0
rfemur -25.4974 2.1342 16.8819
rtibia 57.9278 0 0
rfoot -17.7712 -12.6545 0
rtoes -11.9084 0 0
lowerback -5.35603 -1.46136 -4.15709
upperback -1.4714 -1.76235 2.51895
thorax 1.69836 -0.897657 4.808
lowerneck -22.0805 -4.11717 -11.8312
upperneck 19.8881 -4.73098 11.8623
head 10.6188 -1.67319 5.5491
lclavicle -2.2679e-14 1.00847e-15 0
lhumerus -27.0578 -14.3001 88.0503
lradius 28.2287 0 0
lwrist 2.78561 0 0
lhand -10.1741 -23.1132 0
lfingers 7.12502 0 0
lthumb 15.816 6.2605 0
rclavicle -2.2679e-14 1.00847e-15 0
rhumerus -44.1675 13.0985 -88.411
rradius 39.3988 0 0
rwrist -21.3858 0 0
rhand -30.5954 -23.2103 0
rfingers 7.12502 0 0
rthumb -3.8924 -53.1543 0
88
root 9.31111 16.3396 -24.6759 4.26165 -5.77756 2.85647
lfemur -11.3439 2.49656 -27.3566
ltibia 24.0217 0 0
lfoot -15.4162 8.14654 0
ltoes -1.60672 0 0
rfemur -25.9557 2.38146 16.5582
rtibia 57.0667 0 0
rfoot -17.9456 -12.6698 0
rtoes -12.1703 0 0
lowerback -5.43798 -1.52395 -4.21897
upperback -1.46351 -1.83699 2.50768
thorax 1.76438 -0.937311 4.82035
lowerneck -22.0118 -4.15114 -11.87
upperneck 19.9238 -4.77207 11.8413
head 10.6252 -1.69968 5.54232
lclavicle -2.33357e-14 4.65446e-16 0
lhumerus -27.1217 -14.6216 88.2778
lradius 28.5663 0 0
lwrist 2.99729 0 0
lhand -10.1991 -23.1459 0
lfingers 7.12502 0 0
lthumb 15.7919 6.2297 0
rclavicle -2.33357e-14 4.65446e-16 0
rhumerus -44.2462 12.9314 -88.2626
rradius 39.2436 0 0
rwrist -21.2999 0 0
rhand -30.5717 -23.2121 0
rfingers 7.12502 0 0
rthumb -3.86956 -53.1565 0
